<svg xmlns="http://www.w3.org/2000/svg" width="960" height="402" viewBox="0 0 960 402" role="img"><title>CORE: четыре Engineering Nodes и NODE отдельно как Lab Companion</title><rect width="960" height="402" rx="10" fill="#09090b"/><g stroke="#28282f" opacity=".75"><path d="M0 0V402"/><path d="M40 0V402"/><path d="M80 0V402"/><path d="M120 0V402"/><path d="M160 0V402"/><path d="M200 0V402"/><path d="M240 0V402"/><path d="M280 0V402"/><path d="M320 0V402"/><path d="M360 0V402"/><path d="M400 0V402"/><path d="M440 0V402"/><path d="M480 0V402"/><path d="M520 0V402"/><path d="M560 0V402"/><path d="M600 0V402"/><path d="M640 0V402"/><path d="M680 0V402"/><path d="M720 0V402"/><path d="M760 0V402"/><path d="M800 0V402"/><path d="M840 0V402"/><path d="M880 0V402"/><path d="M920 0V402"/><path d="M960 0V402"/><path d="M0 0H960"/><path d="M0 40H960"/><path d="M0 80H960"/><path d="M0 120H960"/><path d="M0 160H960"/><path d="M0 200H960"/><path d="M0 240H960"/><path d="M0 280H960"/><path d="M0 320H960"/><path d="M0 360H960"/><path d="M0 400H960"/></g><text x="43" y="48" fill="#aaa7b0" font-family="monospace" font-size="12">SYSTEM MAP / RED TEAM LAB</text><rect x="43" y="69" width="874" height="71" rx="4" fill="#17171b" stroke="#bd2940"/><text x="70" y="113" fill="#f4f1ec" font-family="monospace" font-size="23">CORE / XNODE-SH</text><path d="M480 140V173M133 173H827M133 173V194M365 173V194M595 173V194M827 173V194" fill="none" stroke="#77737b"/><rect x="43" y="194" width="182" height="81" rx="3" fill="#17171b" stroke="#44434a"/><path d="M43 194H91" stroke="#bd2940" stroke-width="3"/><text x="58" y="230" fill="#f4f1ec" font-family="monospace" font-size="20">RIG</text><text x="58" y="253" fill="#aaa7b0" font-family="monospace" font-size="9">SYSTEMS / LINUX</text><rect x="275" y="194" width="182" height="81" rx="3" fill="#17171b" stroke="#44434a"/><path d="M275 194H323" stroke="#bd2940" stroke-width="3"/><text x="290" y="230" fill="#f4f1ec" font-family="monospace" font-size="20">KAI</text><text x="290" y="253" fill="#aaa7b0" font-family="monospace" font-size="9">MOBILE / FIELD</text><rect x="505" y="194" width="182" height="81" rx="3" fill="#17171b" stroke="#44434a"/><path d="M505 194H553" stroke="#bd2940" stroke-width="3"/><text x="520" y="230" fill="#f4f1ec" font-family="monospace" font-size="20">NOVA</text><text x="520" y="253" fill="#aaa7b0" font-family="monospace" font-size="9">AUTOMATION / TOOLS</text><rect x="735" y="194" width="182" height="81" rx="3" fill="#17171b" stroke="#44434a"/><path d="M735 194H783" stroke="#bd2940" stroke-width="3"/><text x="750" y="230" fill="#f4f1ec" font-family="monospace" font-size="20">ORBIT</text><text x="750" y="253" fill="#aaa7b0" font-family="monospace" font-size="9">CLOUD / INTEGRATIONS</text><path d="M480 275V310" stroke="#77737b"/><rect x="299" y="310" width="362" height="63" rx="3" fill="#111114" stroke="#55515a"/><text x="326" y="349" fill="#f4f1ec" font-family="monospace" font-size="18">NODE / LAB COMPANION</text><circle cx="628" cy="341" r="5" fill="#bd2940"/></svg>
